<?xml version="1.0" standalone="no"?><!DOCTYPE svg PUBLIC "-//W3C//DTD SVG 1.1//EN" "http://www.w3.org/Graphics/SVG/1.1/DTD/svg11.dtd"><svg t="1708941368757" class="icon" viewBox="0 0 1024 1024" version="1.1" xmlns="http://www.w3.org/2000/svg" p-id="2605" xmlns:xlink="http://www.w3.org/1999/xlink" width="200" height="200"><path d="M512 0c148.950151 0 269.691221 127.80884 269.691221 285.475907v552.735774C781.691221 863.776549 762.110192 884.504541 737.957845 884.504541H286.042155C261.890842 884.504541 242.308779 863.776549 242.308779 838.211681V285.475907C242.308779 127.807806 363.049849 0 512 0z" fill="#142736" p-id="2606"></path><path d="M572.964682 602.413724v71.814328c0 0.819407-0.011366 1.635713-0.035132 2.447887 39.747939 11.047007 74.975193 32.820698 102.331802 61.95665V1024H350.805247V738.622256c26.42044-28.125384 60.169041-49.390692 98.240969-60.768355A85.08913 85.08913 0 0 1 448.968718 674.228052V602.413724h123.995964z" fill="#EDC19A" p-id="2607"></path><path d="M290.873865 1024V888.491011c0-3.704379 0.09713-7.388093 0.283124-11.043907 0.057865-1.295758 0.195294-2.581183 0.283124-3.876941 0.165328-2.341457 0.312057-4.681881 0.545582-7.003705 0.165328-1.602648 0.399887-3.195996 0.595181-4.79761 0.243859-1.967403 0.468085-3.944105 0.761542-5.901175 0.263491-1.765909 0.595181-3.502886 0.907237-5.258462 0.312057-1.755576 0.60448-3.520452 0.955802-5.257429 0.380254-1.862006 0.819407-3.703346 1.249259-5.556052 0.360622-1.583015 0.711943-3.17533 1.111831-4.749046 0.497017-1.94777 1.053966-3.875907 1.599548-5.805078 0.41022-1.439386 0.800807-2.86844 1.239959-4.288193 0.61378-2.025267 1.287491-4.020569 1.970503-6.026204 0.428819-1.276125 0.857639-2.562583 1.316424-3.828375 0.751209-2.091399 1.552016-4.164198 2.371423-6.227698 0.448452-1.131463 0.887604-2.26396 1.355689-3.386123a219.514188 219.514188 0 0 1 2.800242-6.400258c0.448452-0.987835 0.896904-1.976702 1.355689-2.955237a227.714454 227.714454 0 0 1 3.239395-6.553187 212.659277 212.659277 0 0 1 5.023903-9.230466c0.41022-0.709877 0.82974-1.419754 1.249259-2.129631a202.640404 202.640404 0 0 1 4.184864-6.803245c0.370955-0.575548 0.751209-1.151096 1.122163-1.726644a222.067471 222.067471 0 0 1 4.711847-6.908642l0.946503-1.314357a206.064759 206.064759 0 0 1 5.259495-7.004739c0.242825-0.30689 0.486684-0.60448 0.721243-0.90207a227.098607 227.098607 0 0 1 5.853643-7.090503c0.136396-0.163261 0.272791-0.31619 0.409187-0.470151a227.548093 227.548093 0 0 1 6.498422-7.186599l-1.024 1.091164v-2.313558c15.937615-16.865518 34.546309-31.21805 55.117239-42.520283l1.188294-0.647878v11.100738c0 39.169292 32.204852 70.918458 71.935225 70.918458h62.265607c39.975265 0 72.378511-31.749166 72.37851-70.918458V691.277497c0.816307 0.409187 1.63158 0.822507 2.442721 1.240993V691.277497c23.319508 11.748618 44.380222 27.423774 62.228408 46.318693l0.002066 1.426987a240.002454 240.002454 0 0 1 4.71908 5.431023 228.000678 228.000678 0 0 1 5.753413 7.151467l0.699543 0.898971a221.118902 221.118902 0 0 1 5.167532 7.05537l0.92997 1.323657a213.045732 213.045732 0 0 1 4.631249 6.95824c0.374054 0.579681 0.738809 1.150063 1.102531 1.729744 1.41872 2.252593 2.789909 4.542385 4.122866 6.85181a215.403721 215.403721 0 0 1 4.860642 8.871911c0.441219 0.859705 0.873138 1.720444 1.304024 2.58015a244.199717 244.199717 0 0 1 3.174296 6.591418c0.459818 0.995068 0.901037 1.990135 1.342257 2.99657 0.948569 2.134797 1.859939 4.270628 2.742377 6.43539 0.459818 1.140763 0.901037 2.280492 1.342256 3.430555 0.80494 2.077966 1.591282 4.155931 2.329058 6.261796 0.150862 0.425719 0.296557 0.853506 0.440186 1.281292l0.854539 2.574983c0.661312 2.010801 1.322624 4.029869 1.936403 6.069602 0.431919 1.430087 0.815273 2.879806 1.218261 4.319193 0.546616 1.942603 1.082898 3.885207 1.571648 5.847443 0.392654 1.585082 0.738809 3.188763 1.093231 4.784177 0.421586 1.865106 0.853506 3.719879 1.22756 5.604618 0.345122 1.749376 0.632379 3.518385 0.940303 5.286361 0.296557 1.769009 0.632379 3.527685 0.890705 5.305994 0.288291 1.971536 0.508383 3.961671 0.748109 5.94354 0.201493 1.614014 0.421586 3.217695 0.584847 4.841009 0.230426 2.339391 0.374054 4.69738 0.526983 7.05537 0.086797 1.305058 0.210793 2.589449 0.278991 3.903807 0.181861 3.69198 0.276924 7.403592 0.296557 11.133804V1024H290.873865z" fill="#F8F7F7" p-id="2608"></path><path d="M295.007064 846.272452c0.315156-1.740077 0.677845-3.453288 1.033299-5.166498-0.355455 1.713211-0.718143 3.435721-1.033299 5.166498z m-0.997135 10.332997c0.278991-1.73491 0.640646-3.451221 0.960969-5.166498-0.330656 1.72561-0.681978 3.431588-0.960969 5.166498z m-2.934571 11.366297c0.175661-1.735943 0.41332-3.451221 0.630313-5.166499-0.216993 1.715277-0.454652 3.430555-0.630313 5.166499z m0.165328 11.366296c0.072331-1.381522 0.20666-2.751677 0.299657-4.133198-0.092997 1.381522-0.227326 2.751677-0.299657 4.133198zM307.40666 805.973764c0.662345-2.082099 1.353623-4.154898 2.066599-6.199798a205.30115 205.30115 0 0 0-2.066599 6.199798z m-10.332997 29.965691c0.321356-2.080032 0.680945-4.140432 1.0333-6.199798-0.352355 2.059366-0.711943 4.119766-1.0333 6.199798z m6.199798-19.632694z m-3.099899 9.299697a245.908795 245.908795 0 0 1 2.066599-6.199798c-0.716077 2.053166-1.42182 4.107366-2.066599 6.199798z m433.154067 37.198789c0.20666 1.722511 0.454652 3.433655 0.630312 5.166499-0.175661-1.732844-0.423653-3.443988-0.630312-5.166499zM726.926337 829.739657c0.352355 2.059366 0.711943 4.119766 1.0333 6.199798-0.321356-2.080032-0.680945-4.140432-1.0333-6.199798z m-16.532795-40.298688a188.976048 188.976048 0 0 1 4.133199 6.199798 170.856105 170.856105 0 0 0-4.133199-6.199798z m19.66886 61.997982c0.330656 1.722511 0.681978 3.425388 0.960968 5.166498-0.278991-1.74111-0.630313-3.453288-0.960968-5.166498zM728.992936 841.105954c0.355455 1.719411 0.718143 3.429522 1.0333 5.166498-0.315156-1.727677-0.686111-3.447088-1.0333-5.166498z m-6.199798-21.699294c0.716077 2.063499 1.42182 4.116666 2.0666 6.199798-0.644779-2.083132-1.350523-4.136299-2.0666-6.199798z m10.699819 55.798184c0.092997 1.381522 0.237659 2.751677 0.299657 4.133198-0.061998-1.381522-0.20666-2.751677-0.299657-4.133198zM727.959637 835.939455c0.371988 1.712178 0.697477 3.443988 1.033299 5.166499-0.335822-1.722511-0.653045-3.454321-1.033299-5.166499z m-2.0666-10.332997c0.365788 1.368089 0.692311 2.746511 1.0333 4.133199-0.340989-1.386688-0.667512-2.77441-1.0333-4.133199z m4.143532 20.665994c0.371988 1.709078 0.681978 3.447088 1.012634 5.166499-0.330656-1.719411-0.640646-3.457421-1.012634-5.166499z m2.169929 10.332997c0.30999 2.056266 0.547649 4.122866 0.805974 6.199798-0.258325-2.066599-0.495984-4.143532-0.805974-6.199798zM704.193744 778.074672c0.347189 0.689211 0.694377 1.377388 1.033299 2.066599-0.338922-0.689211-0.686111-1.377388-1.033299-2.066599z m29.164884 89.897074c0.247992 2.397255 0.402987 4.815177 0.568314 7.233098-0.154995-2.428254-0.320323-4.845142-0.568314-7.233098zM681.760807 745.272573c0.144662 0.165328 0.289324 0.340989 0.433986 0.506317-0.144662-0.165328-0.289324-0.330656-0.433986-0.506317z m6.039637 7.005772c0.247992 0.320323 0.506317 0.630313 0.754309 0.960969-0.247992-0.330656-0.506317-0.640646-0.754309-0.960969zM709.360242 787.374369c0.349255 0.681978 0.698511 1.370155 1.0333 2.0666a261.858809 261.858809 0 0 0-1.0333-2.0666z m5.166499 10.332997c0.354422 0.687144 0.693344 1.379455 1.033299 2.0666-0.339956-0.687144-0.678878-1.379455-1.033299-2.0666z m-20.650495-36.165489c0.330656 0.347189 0.671645 0.686111 1.002301 1.0333-0.320323-0.347189-0.661312-0.694377-1.002301-1.0333z m5.150999 7.233098c0.340989 0.346155 0.692311 0.687144 1.0333 1.033299-0.351322-0.346155-0.692311-0.692311-1.0333-1.033299z m22.732594 47.531786c0.359588 1.367055 0.696444 2.75581 1.033299 4.133199-0.336856-1.377388-0.673711-2.766143-1.033299-4.133199z" fill="#FFA86E" p-id="2609"></path><path d="M260.908174 413.319879c0 30.244682 24.520202 54.764884 54.764884 54.764884s54.764884-24.520202 54.764883-54.764884-24.520202-54.764884-54.764883-54.764884-54.764884 24.520202-54.764884 54.764884z" fill="#EFC29B" p-id="2610"></path><path d="M289.840565 413.313679a25.832492 25.832492 0 1 0 51.664985 0.007233c0-14.265736-11.562624-25.831459-25.828359-25.833526-14.266769-0.002067-25.832492 11.560557-25.836626 25.826293z" fill="#E89E80" opacity=".5" p-id="2611"></path><path d="M653.562059 413.319879c0 30.244682 24.520202 54.764884 54.764883 54.764884s54.764884-24.520202 54.764884-54.764884-24.520202-54.764884-54.764884-54.764884-54.764884 24.520202-54.764883 54.764884z" fill="#EFC29B" p-id="2612"></path><path d="M682.49445 413.313679a25.832492 25.832492 0 1 0 51.664985 0.007233c0-14.265736-11.562624-25.831459-25.828359-25.833526-14.266769-0.002067-25.832492 11.560557-25.836626 25.826293z" fill="#E89E80" opacity=".5" p-id="2613"></path><path d="M508.354519 126.062563h7.290962C620.34974 126.062563 705.227043 210.9471 705.227043 315.658591v127.612513C705.227043 549.99443 618.716093 636.512614 512 636.512614h-3.645481C403.65026 636.512614 318.772957 551.628077 318.772957 446.916585V315.658591C318.772957 210.9471 403.65026 126.062563 508.354519 126.062563z" fill="#F2DCC9" p-id="2614"></path><path d="M508.354519 126.062563h7.290962C620.34974 126.062563 705.227043 210.9471 705.227043 315.658591v127.612513C705.227043 549.99443 618.716093 636.512614 512 636.512614h-3.645481C403.65026 636.512614 318.772957 551.628077 318.772957 446.916585V315.658591C318.772957 210.9471 403.65026 126.062563 508.354519 126.062563z" fill="#F6D1B1" p-id="2615"></path><path d="M455.168517 510.45005c0 31.957893 25.445005 57.864783 56.831483 57.864784s56.831483-25.90689 56.831483-57.864784H455.168517z" fill="#FA997B" p-id="2616"></path><path d="M393.170535 409.18668c0 11.98421 9.715084 21.699294 21.699293 21.699294s21.699294-9.715084 21.699294-21.699294-9.715084-21.699294-21.699294-21.699294-21.699294 9.715084-21.699293 21.699294zM579.16448 409.18668c0 11.98421 9.715084 21.699294 21.699294 21.699294s21.699294-9.715084 21.699294-21.699294-9.715084-21.699294-21.699294-21.699294-21.699294 9.715084-21.699294 21.699294z" fill="#1D2030" p-id="2617"></path><path d="M562.37336 334.891399c27.640767-13.943346 53.595189-13.943346 77.221587 0.177727a5.166498 5.166498 0 1 1-5.300828 8.869845c-20.461401-12.229102-42.671144-12.229102-67.26781 0.177727a5.166498 5.166498 0 1 1-4.653982-9.225299zM376.379415 334.891399c27.640767-13.943346 53.595189-13.943346 77.221586 0.177727a5.166498 5.166498 0 1 1-5.300827 8.869845c-20.461401-12.229102-42.671144-12.229102-67.267811 0.177727a5.166498 5.166498 0 1 1-4.653982-9.225299z" fill="#1D3445" p-id="2618"></path><path d="M594.351919 336.855701c35.23862-0.0062 65.056549 24.213312 73.410777 57.271669l40.377219-39.275721 7.205199 7.406692-45.279193 44.0444-0.282091-0.292424c0.101263 1.135596 0.178761 2.277393 0.23146 3.426422 1.843407 40.614878-28.451907 75.503209-68.771262 79.195188-39.916367 3.655814-75.67887-24.542934-81.728839-64.191677l-0.173595-1.204827h-22.118813c-5.189231 39.950466-40.368953 68.996521-80.405183 66.385372C376.782402 487.01068 345.638749 453.639233 345.638749 413.350878c0-3.465687 0.230426-6.879709 0.676811-10.226567L304.306761 362.258341l7.205199-7.406692 37.37445 36.35665c8.961808-29.762131 35.535177-52.015273 67.931188-54.127338 39.636343-2.585316 74.511241 25.857292 80.239855 65.189844l0.165328 1.195528h22.067148c4.81001-37.984097 36.933231-66.490769 75.06199-66.610632z m-63.266874 68.762995a63.170777 63.170777 0 0 0 0 15.630725c3.848008 31.931027 30.885328 55.998644 63.059181 56.135039 34.037925-0.011366 62.027948-26.82136 63.4911-60.81382 1.463152-33.993493-24.118248-63.106712-58.030111-66.042317-33.910829-2.934571-64.11728 21.352105-68.52017 55.090373z m-154.594034-37.58731c-18.13751 18.268739-23.46107 45.67598-13.481461 69.406741 9.978575 23.730761 33.289816 39.095927 59.032412 38.910967 34.955495-0.162228 63.18111-28.591403 63.092246-63.546898 0-25.743629-15.533594-48.943273-39.33462-58.751354-23.802059-9.809114-51.170034-4.288194-69.308577 13.980544z" fill="#000000" p-id="2619"></path><path d="M642.111031 63.408436c159.655136 196.764028 177.560153 290.51841 53.714018 281.264178-97.118805-7.25893-179.41906-54.423895-246.899729-141.496961-41.201792 96.506059-88.898906 144.758054-143.089276 144.758054-70.869893 0-34.540109-87.84804 108.992452-263.545154L485.134208 100.3427l-0.213893 0.71711z" fill="#142736" p-id="2620"></path></svg>