<?xml version="1.0" encoding="UTF-8"?>
<svg width="59px" height="66px" viewBox="0 0 59 66" version="1.1" xmlns="http://www.w3.org/2000/svg" xmlns:xlink="http://www.w3.org/1999/xlink">
    <title>Logo_达闼_彩色_图形左侧文字右侧</title>
    <g id="页面-1" stroke="none" stroke-width="1" fill="none" fill-rule="evenodd">
        <g id="Logo_达闼_彩色_图形左侧文字右侧" fill-rule="nonzero">
            <path d="M43.0818,20.6209 L30.0088,13.0729 C29.4098,12.7289 28.6738,12.7289 28.0758,13.0729 L15.0068,20.6209 C14.5428,20.8889 14.3838,21.4799 14.6518,21.9439 C14.7368,22.0919 14.8588,22.2139 15.0068,22.2989 L28.0758,29.8419 C28.6728,30.1879 29.4108,30.1879 30.0088,29.8419 L43.0818,22.2989 C43.5458,22.0309 43.7048,21.4379 43.4368,20.9749 C43.3518,20.8279 43.2288,20.7059 43.0818,20.6209" id="Fill-1" fill="#FFFFFF"></path>
            <path d="M45.0154,25.6502 L31.4644,33.4762 C31.1654,33.6462 30.9804,33.9632 30.9774,34.3052 L30.9774,49.9522 C30.9604,50.4852 31.3784,50.9292 31.9114,50.9462 C32.1014,50.9532 32.2894,50.9022 32.4524,50.8002 L45.5254,43.2572 C46.1224,42.9102 46.4895673,42.2712 46.4895673,41.5802 L46.4895673,26.4902 C46.4964,25.9552 46.0684,25.5152 45.5334,25.5079553 C45.3504,25.5052 45.1714,25.5552 45.0154,25.6502" id="Fill-3" fill="#FFFFFF"></path>
            <path d="M11.617496,26.49 L11.617496,41.58 C11.6165,42.272 11.9865,42.913 12.5865,43.258 L25.6555,50.801 C26.1155,51.07 26.7055,50.915 26.9745,50.455 C27.0615,50.305 27.1075,50.136 27.1066314,49.962 L27.1066314,34.305 C27.1105,33.964 26.9345,33.645 26.6425,33.467 L13.0685,25.65 C12.6045,25.385 12.0125,25.545 11.7455,26.009 C11.6615,26.155 11.617496,26.321 11.617496,26.49" id="Fill-5" fill="#FFFFFF"></path>
            <path d="M54.199,46.0535 C54.199,46.7445 53.829,47.3825 53.23,47.7275 L30.009,61.1435 C29.41,61.4875 28.674,61.4875 28.075,61.1435 L4.84,47.7505 C4.241,47.4065 3.871,46.7675 3.871,46.0765 L3.871,19.2205 C3.871,18.5295 4.241,17.8915 4.84,17.5465 L28.075,4.1305 C28.674,3.7865 29.41,3.7865 30.009,4.1305 L53.244,17.5465 C53.843,17.8915 54.212,18.5295 54.213,19.2205 L54.199,46.0535 Z M55.168,14.1905 L31.947,0.7785 C30.149,-0.2595 27.934,-0.2595 26.137,0.7785 L2.902,14.1905 C1.107,15.2305 0.001,17.1465 0,19.2205 L0,46.0535 C0.001,48.1275 1.107,50.0435 2.902,51.0835 L26.137,64.4955 C27.934,65.5335 30.149,65.5335 31.947,64.4955 L55.168,51.0835 C56.964,50.0455 58.071,48.1275 58.0700014,46.0535 L58.0700014,19.2205 C58.071,17.1455 56.964,15.2285 55.168,14.1905 L55.168,14.1905 Z" id="Fill-7" fill="#FFFFFF"></path>
        </g>
    </g>
</svg>