<?xml version="1.0" encoding="UTF-8"?>
<svg width="42px" height="40px" viewBox="0 0 42 40" version="1.1" xmlns="http://www.w3.org/2000/svg" xmlns:xlink="http://www.w3.org/1999/xlink">
    <title>小数logo-对话头像</title>
    <defs>
        <polygon id="path-1" points="0 0 34.3940187 0 34.3940187 35 0 35"></polygon>
        <linearGradient x1="49.9752842%" y1="-24.5203542%" x2="49.9752842%" y2="68.7140291%" id="linearGradient-3">
            <stop stop-color="#41D98C" offset="0%"></stop>
            <stop stop-color="#31C4C9" offset="100%"></stop>
        </linearGradient>
    </defs>
    <g id="页面-1" stroke="none" stroke-width="1" fill="none" fill-rule="evenodd">
        <g id="切图" transform="translate(-152, -68)">
            <g id="小数logo-非定稿" transform="translate(152.6976, 69.6536)">
                <g id="编组备份" transform="translate(20.3024, 17.8464) rotate(-1) translate(-20.3024, -17.8464)translate(0.3024, 0.3464)">
                    <g id="编组">
                        <mask id="mask-2" fill="white">
                            <use xlink:href="#path-1"></use>
                        </mask>
                        <g id="Clip-2"></g>
                        <path d="M17.1970094,27.5719338 C11.7307166,27.5719338 7.29943203,23.0625588 7.29943203,17.4999364 C7.29943203,11.937314 11.7307166,7.42793904 17.1970094,7.42793904 C22.6633021,7.42793904 27.0945867,11.937314 27.0945867,17.4999364 C27.0945867,23.0625588 22.6633021,27.5719338 17.1970094,27.5719338 M17.1970094,-0.000127203806 C7.69943515,-0.000127203806 0,7.83499122 0,17.4999364 C0,27.1648816 7.69943515,35 17.1970094,35 C20.8914132,35 24.3114399,33.8106444 27.1139618,31.792556 C26.2570801,30.5955682 25.7495762,29.1219121 25.7495762,27.5267764 C25.7495762,23.5224006 28.9396011,20.2761595 32.8746318,20.2761595 C33.3121353,20.2761595 33.7396386,20.3181367 34.1558918,20.395095 C34.309643,19.4531508 34.3940187,18.4870379 34.3940187,17.4999364 C34.3940187,7.83499122 26.6945836,-0.000127203806 17.1970094,-0.000127203806" id="Fill-1" fill="url(#linearGradient-3)" fill-rule="nonzero" mask="url(#mask-2)"></path>
                    </g>
                    <path d="M34.1555793,20.3952222 C33.3868233,25.0915867 30.781178,29.1532043 27.1142743,31.7926832 C28.4099095,33.6015214 30.5068008,34.7781566 32.8749443,34.7781566 C36.8099751,34.7781566 40,31.5312794 40,27.5269036 C40,23.9677411 37.4793553,21.0096166 34.1555793,20.3952222" id="Fill-3" fill="#FFC34C"></path>
                </g>
            </g>
        </g>
    </g>
</svg>