<?xml version="1.0" encoding="UTF-8"?>
<svg width="155px" height="66px" viewBox="0 0 155 66" version="1.1" xmlns="http://www.w3.org/2000/svg" xmlns:xlink="http://www.w3.org/1999/xlink">
    <title>Logo_达闼_彩色_图形左侧文字右侧</title>
    <defs>
        <polygon id="path-1" points="0 0 25.8274 0 25.8274 32.917 0 32.917"></polygon>
    </defs>
    <g id="页面-1" stroke="none" stroke-width="1" fill="none" fill-rule="evenodd">
        <g id="Logo_达闼_彩色_图形左侧文字右侧">
            <path d="M43.0818,20.6209 L30.0088,13.0729 C29.4098,12.7289 28.6738,12.7289 28.0758,13.0729 L15.0068,20.6209 C14.5428,20.8889 14.3838,21.4799 14.6518,21.9439 C14.7368,22.0919 14.8588,22.2139 15.0068,22.2989 L28.0758,29.8419 C28.6728,30.1879 29.4108,30.1879 30.0088,29.8419 L43.0818,22.2989 C43.5458,22.0309 43.7048,21.4379 43.4368,20.9749 C43.3518,20.8279 43.2288,20.7059 43.0818,20.6209" id="Fill-1" fill="#ffffff"></path>
            <path d="M45.0154,25.6502 L31.4644,33.4762 C31.1654,33.6462 30.9804,33.9632 30.9774,34.3052 L30.9774,49.9522 C30.9604,50.4852 31.3784,50.9292 31.9114,50.9462 C32.1014,50.9532 32.2894,50.9022 32.4524,50.8002 L45.5254,43.2572 C46.1224,42.9102 46.4894847,42.2712 46.4894847,41.5802 L46.4894847,26.4902 C46.4964,25.9552 46.0684,25.5152 45.5334,25.5080725 C45.3504,25.5052 45.1714,25.5552 45.0154,25.6502" id="Fill-3" fill="#ffffff"></path>
            <path d="M11.617498,26.49 L11.617498,41.58 C11.6165,42.272 11.9865,42.913 12.5865,43.258 L25.6555,50.801 C26.1155,51.07 26.7055,50.915 26.9745,50.455 C27.0615,50.305 27.1075,50.136 27.1065668,49.962 L27.1065668,34.305 C27.1105,33.964 26.9345,33.645 26.6425,33.467 L13.0685,25.65 C12.6045,25.385 12.0125,25.545 11.7455,26.009 C11.6615,26.155 11.617498,26.321 11.617498,26.49" id="Fill-5" fill="#ffffff"></path>
            <path d="M54.199,46.0535 C54.199,46.7445 53.829,47.3825 53.23,47.7275 L30.009,61.1435 C29.41,61.4875 28.674,61.4875 28.075,61.1435 L4.84,47.7505 C4.241,47.4065 3.871,46.7675 3.871,46.0765 L3.871,19.2205 C3.871,18.5295 4.241,17.8915 4.84,17.5465 L28.075,4.1305 C28.674,3.7865 29.41,3.7865 30.009,4.1305 L53.244,17.5465 C53.843,17.8915 54.212,18.5295 54.213,19.2205 L54.199,46.0535 Z M55.168,14.1905 L31.947,0.7785 C30.149,-0.2595 27.934,-0.2595 26.137,0.7785 L2.902,14.1905 C1.107,15.2305 0.001,17.1465 -7.10542736e-15,19.2205 L-7.10542736e-15,46.0535 C0.001,48.1275 1.107,50.0435 2.902,51.0835 L26.137,64.4955 C27.934,65.5335 30.149,65.5335 31.947,64.4955 L55.168,51.0835 C56.964,50.0455 58.071,48.1275 58.0700007,46.0535 L58.0700007,19.2205 C58.071,17.1455 56.964,15.2285 55.168,14.1905 L55.168,14.1905 Z" id="Fill-7" fill="#ffffff"></path>
            <path d="M109.5809,45.2507 L109.5809,48.7697 C109.5809,48.9147 109.4659,49.0347 109.3149,49.0347 L89.3979,49.0347 C87.9109,49.0347 86.3339,49.0417 84.8849,48.8967 C83.7519,48.7887 82.7659,48.6417 81.6319,48.1237 C80.1319,47.4347 78.7329,45.9977 77.5559,44.6677 C77.2979,44.3777 76.8669,44.3197 76.5499,44.5477 L70.0819,48.9897 C69.9169,49.1117 69.6839,48.9897 69.6839,48.7817 L69.6839,44.5927 C69.6839,44.4277 69.7719,44.2707 69.9049,44.1747 L74.2529,41.1807 C74.6709,40.8957 74.9169,40.4217 74.9169,39.9157 L74.9169,29.5727 C74.9169,29.1497 74.5759,28.8077 74.1509,28.8077 L69.9499,28.8077 C69.8039,28.8077 69.6839,28.6877 69.6839,28.5417 L69.6839,24.9797 C69.6839,24.8267 69.8039,24.7137 69.9499,24.7137 L77.5309,24.7137 C78.3789,24.7137 79.0629,25.3967 79.0629,26.2457 L79.0629,37.9787 C79.0629,40.3637 80.2199,42.6547 82.2529,43.9277 C82.6759,44.1927 83.1189,44.4077 83.5869,44.5477 C84.5489,44.8517 85.1449,44.9837 85.9359,44.9837 C87.5879,44.9837 88.5619,44.9907 90.0569,44.9837 L109.3149,44.9837 C109.4659,44.9837 109.5809,45.0987 109.5809,45.2507" id="Fill-9" fill="#ffffff"></path>
            <path d="M78.2859,19.8943 L75.4439,22.5793 C75.3369,22.6733 75.1639,22.6663 75.0639,22.5583 C73.0769,20.4453 72.4949,19.8703 70.4619,17.8313 C70.3549,17.7243 70.3549,17.5463 70.4699,17.4393 L73.2219,14.9133 C73.3239,14.8253 73.4759,14.8253 73.5769,14.9193 C75.6599,16.9203 76.2659,17.4393 78.2859,19.5083 C78.3939,19.6173 78.3939,19.7873 78.2859,19.8943" id="Fill-11" fill="#ffffff"></path>
            <path d="M97.2166,26.2078 C97.2096,26.2208 97.2036,26.2208 97.1966,26.2328 C98.0576,32.3588 102.7666,35.6568 108.1026,37.5178 C108.3106,37.5868 108.4506,37.7828 108.4506,37.9928 L108.4506,41.8838 C108.4506,42.2518 108.0826,42.4988 107.7476,42.3658 C102.1836,40.0808 97.2736,37.1698 94.8376,33.1388 C92.3946,37.1698 87.6926,40.0808 82.1336,42.3658 C81.7936,42.4988 81.4326,42.2518 81.4326,41.8838 L81.4326,37.9928 C81.4326,37.7828 81.5656,37.5868 81.7736,37.5178 C87.1086,35.6568 91.6086,32.3588 92.4696,26.2278 L92.4566,26.2078 L81.8306,26.2078 C81.6086,26.2078 81.4326,26.0298 81.4326,25.8098 L81.4326,22.1188 C81.4326,21.8978 81.6086,21.7218 81.8306,21.7218 L92.7226,21.7218 L92.7226,15.1208 C92.7226,14.9738 92.8426,14.8538 92.9876,14.8538 L96.9136,14.8538 C97.0636,14.8538 97.1786,14.9738 97.1786,15.1208 L97.1786,21.7218 L108.0516,21.7218 C108.2726,21.7218 108.4506,21.8978 108.4506,22.1188 L108.4506,25.8098 C108.4506,26.0298 108.2726,26.2078 108.0516,26.2078 L97.2166,26.2078 Z" id="Fill-13" fill="#ffffff"></path>
            <path d="M121.5501,22.6189 L121.5501,48.7679 C121.5501,48.9139 121.4301,49.0339 121.2841,49.0339 L117.5891,49.0339 C117.4441,49.0339 117.3231,48.9139 117.3231,48.7679 L117.3231,22.6249 C117.3231,22.4789 117.4441,22.3589 117.5891,22.3589 L121.2971,22.3589 C121.4371,22.3589 121.5501,22.4789 121.5501,22.6189" id="Fill-15" fill="#ffffff"></path>
            <path d="M125.8733,18.8914 L123.0313,21.5794 C122.9313,21.6754 122.7533,21.6694 122.6513,21.5624 C120.7153,19.4984 120.9863,19.8094 119.0003,17.8224 C118.8863,17.7194 118.8863,17.5484 119.0003,17.4544 L121.7653,14.9174 C121.8603,14.8284 122.0253,14.8284 122.1133,14.9224 C124.1583,16.8774 123.9053,16.5044 125.8783,18.5234 C125.9813,18.6254 125.9813,18.7904 125.8733,18.8914" id="Fill-17" fill="#ffffff"></path>
            <path d="M128.8406,25.2117 C128.8406,25.3237 128.7966,25.4327 128.7086,25.5017 L126.9156,27.1987 C126.8476,27.2747 126.7396,27.3127 126.6326,27.3127 L126.6256,27.3127 C126.5116,27.3127 126.4046,27.2617 126.3276,27.1797 C125.1186,25.8877 124.7576,25.5267 123.5556,24.3307 L123.4296,24.2047 C123.3476,24.1217 123.3026,24.0147 123.3026,23.8947 C123.3026,23.7807 123.3606,23.6737 123.4356,23.6047 L125.1886,21.9967 C125.3456,21.8517 125.5886,21.8567 125.7336,22.0017 C126.1066,22.3617 126.4046,22.6427 126.6626,22.8887 C127.3536,23.5407 127.7966,23.9647 128.7206,24.9137 C128.8026,24.9887 128.8406,25.0967 128.8406,25.2117" id="Fill-19" fill="#ffffff"></path>
            <path d="M148.4563,41.2498 L148.4563,43.4958 C148.4563,43.7168 148.2803,43.8948 148.0583,43.8948 L135.5143,43.8948 C134.5533,43.8948 133.5593,43.8948 132.6553,43.8068 C131.9773,43.7358 131.3063,43.6478 130.5273,43.2928 C129.5453,42.8448 128.6413,41.9138 127.8823,41.0598 C127.8123,40.9778 127.6853,40.9648 127.5853,41.0218 L123.5283,43.8238 C123.4513,43.8688 123.3763,43.8948 123.2863,43.8948 C123.2183,43.8948 123.1533,43.8758 123.0913,43.8518 C122.9583,43.7738 122.8753,43.6358 122.8753,43.4768 L122.8753,40.8448 C122.8753,40.6538 122.9713,40.4768 123.1233,40.3688 L125.8573,38.4828 C126.0473,38.3508 126.1603,38.1408 126.1603,37.9068 L126.1603,31.7298 C126.1603,31.4208 125.9153,31.1858 125.6173,31.1858 L123.2743,31.1858 C123.0533,31.1858 122.8753,31.0028 122.8753,30.7868 L122.8753,28.4958 C122.8753,28.2688 123.0533,28.0978 123.2743,28.0978 L127.4773,28.0978 C128.4713,28.0978 129.2753,28.8948 129.2753,29.8958 L129.2753,36.6858 C129.2753,38.1978 130.0463,39.5778 131.2883,40.2938 C131.5083,40.4058 131.7243,40.5088 131.9393,40.5788 C132.5023,40.7488 132.8633,40.8368 133.3383,40.8368 L134.3253,40.8368 C134.8563,40.8448 135.3193,40.8448 135.9253,40.8368 L148.0453,40.8368 C148.2733,40.8368 148.4563,41.0218 148.4563,41.2498" id="Fill-21" fill="#ffffff"></path>
            <path d="M147.4534,29.2498 L140.9594,29.2498 C141.4904,32.2248 143.6754,34.3948 147.4584,35.7118 C147.6944,35.7938 147.8514,36.0148 147.8514,36.2498 L147.8514,38.5278 C147.8514,38.7438 147.7444,38.9438 147.5614,39.0718 C147.4534,39.1418 147.3264,39.1798 147.1984,39.1798 C147.1104,39.1798 147.0284,39.1668 146.9454,39.1348 C144.0614,37.9388 140.9094,36.3828 139.2124,33.8888 C137.4724,36.4578 134.2574,38.0328 131.5994,39.1348 C131.4024,39.2118 131.1754,39.1918 130.9844,39.0718 C130.8084,38.9438 130.7064,38.7438 130.7064,38.5278 L130.7064,36.2498 C130.7064,36.0148 130.8644,35.7938 131.0924,35.7118 C134.8404,34.4068 136.9284,32.2868 137.4594,29.2498 L131.1044,29.2498 C130.8844,29.2498 130.7064,29.0658 130.7064,28.8518 L130.7064,26.3758 C130.7064,26.1548 130.8764,25.9778 131.1044,25.9778 L137.6564,25.9778 L137.6564,22.3768 C137.6564,22.1108 137.8644,21.8958 138.1304,21.8958 L140.4334,21.8958 C140.6934,21.8958 140.9144,22.1108 140.9144,22.3768 L140.9144,25.9778 L147.4534,25.9778 C147.6744,25.9778 147.8514,26.1548 147.8514,26.3758 L147.8514,28.8518 C147.8514,29.0788 147.6744,29.2498 147.4534,29.2498" id="Fill-23" fill="#ffffff"></path>
            <g id="编组" transform="translate(128.351300, 16.118900)">
                <mask id="mask-2" fill="white">
                    <use xlink:href="#path-1"></use>
                </mask>
                <g id="Clip-26"></g>
                <path d="M24.296,0 L0.265,0 C0.12,0 0,0.12 0,0.266 L0,3.784 C0,3.937 0.12,4.051 0.265,4.051 L20.916,4.051 C21.334,4.051 21.682,4.393 21.682,4.822 L21.651,28.05 C21.651,28.473 21.304,28.815 20.885,28.815 L17.398,28.815 C17.253,28.815 17.132,28.936 17.132,29.081 L17.163,32.664 C17.163,32.809 17.283,32.917 17.423,32.917 L24.03,32.917 C25.017,32.917 25.828,32.113 25.828,31.119 L25.828,1.532 C25.828,0.684 25.137,0 24.296,0" id="Fill-25" fill="#ffffff" mask="url(#mask-2)"></path>
            </g>
        </g>
    </g>
</svg>