<?xml version="1.0" encoding="UTF-8"?>
<svg width="20px" height="20px" viewBox="0 0 20 20" version="1.1" xmlns="http://www.w3.org/2000/svg" xmlns:xlink="http://www.w3.org/1999/xlink">
    <title>收起</title>
    <g id="页面-1" stroke="none" stroke-width="1" fill="none" fill-rule="evenodd">
        <g id="智能对话切图" transform="translate(-240.4973, -83.5001)" fill="#333333" fill-rule="nonzero">
            <g id="编组备份" transform="translate(240.4973, 83.5001)">
                <path d="M3.12765688,4.49985628 C2.78247891,4.49985628 2.50265688,4.77967831 2.50265688,5.12485628 C2.50265688,5.47003425 2.78247891,5.74985628 3.12765688,5.74985628 L16.4609902,5.74985628 C16.8061682,5.74985628 17.0859902,5.47003425 17.0859902,5.12485628 C17.0859902,4.77967831 16.8061682,4.49985628 16.4609902,4.49985628 L3.12765688,4.49985628 Z M13.6620524,7.74249397 C13.4179725,7.98656949 13.417969,8.3822976 13.6620446,8.62637744 L14.9529902,9.91585628 L3.12765688,9.91652295 C2.78247891,9.91652295 2.50265688,10.196345 2.50265688,10.5415229 C2.50265688,10.8867009 2.78247891,11.1665229 3.12765688,11.1665229 L14.9529902,11.1658563 L13.6620446,12.4565851 C13.4450885,12.673545 13.4209851,13.0103257 13.5897323,13.2539094 L13.6620524,13.3404686 C13.9061322,13.5845441 14.3018603,13.5845406 14.5459359,13.3404608 L16.9356594,10.9481288 L16.9823855,10.8863365 L17.0295899,10.8014002 L17.0697676,10.6833293 L17.0841062,10.5901915 L17.0841062,10.4921628 L17.081922,10.4698207 L17.0634682,10.3748043 L17.0528234,10.3401169 L17.0216231,10.264844 L17.0017917,10.2280071 L16.9625438,10.1684239 L16.9029359,10.0995434 L14.5459359,7.74250178 C14.3018603,7.49842194 13.9061322,7.49841844 13.6620524,7.74249397 Z M3.12765688,15.3331896 C2.78247891,15.3331896 2.50265688,15.6130116 2.50265688,15.9581896 C2.50265688,16.3033676 2.78247891,16.5831896 3.12765688,16.5831896 L16.4609902,16.5831896 C16.8061682,16.5831896 17.0859902,16.3033676 17.0859902,15.9581896 C17.0859902,15.6130116 16.8061682,15.3331896 16.4609902,15.3331896 L3.12765688,15.3331896 Z" id="形状"></path>
            </g>
        </g>
    </g>
</svg>