<?xml version="1.0" encoding="UTF-8"?>
<svg width="20px" height="20px" viewBox="0 0 20 20" version="1.1" xmlns="http://www.w3.org/2000/svg" xmlns:xlink="http://www.w3.org/1999/xlink">
    <title>展开</title>
    <g id="页面-1" stroke="none" stroke-width="1" fill="none" fill-rule="evenodd">
        <g id="智能对话切图" transform="translate(-207.4973, -83.5001)">
            <rect  x="0" y="0" width="428" height="483"></rect>
            <g id="编组" transform="translate(210, 88)" fill="#333333" fill-rule="nonzero">
                <path d="M13.9583333,0 C14.3035113,0 14.5833333,0.279822031 14.5833333,0.625 C14.5833333,0.970177969 14.3035113,1.25 13.9583333,1.25 L0.625,1.25 C0.279822031,1.25 0,0.970177969 0,0.625 C0,0.279822031 0.279822031,0 0.625,0 L13.9583333,0 Z M3.42393783,3.24263769 C3.66801767,3.48671321 3.66802117,3.88244133 3.42394564,4.12652117 L2.133,5.416 L13.9583333,5.41666667 C14.3035113,5.41666667 14.5833333,5.6964887 14.5833333,6.04166667 C14.5833333,6.38684464 14.3035113,6.66666667 13.9583333,6.66666667 L2.133,6.666 L3.42394564,7.95672883 C3.64090167,8.17368869 3.66500513,8.51046941 3.49625791,8.75405309 L3.42393783,8.84061231 C3.17985799,9.08468784 2.78412988,9.08468434 2.54005436,8.8406045 L0.183054356,6.48356283 L0.173219867,6.47354737 C0.157510506,6.45711879 0.142688305,6.4398348 0.128830191,6.42177233 L0.183054356,6.48356283 C0.152827788,6.45333573 0.126344556,6.42078285 0.103604661,6.38648024 C0.0680836172,6.33298811 0.0402800923,6.27281166 0.0225063575,6.20847214 C0.0202639907,6.20011507 0.018156805,6.19181003 0.0162225827,6.18347299 C0.010437859,6.15886177 0.0061484251,6.13346654 0.00343654348,6.10760161 C0.00226556204,6.0962357 0.00135510002,6.08452436 0.000773155227,6.07279976 C0.000256953197,6.06252653 0,6.05212661 0,6.04166667 L0.000773155227,6.01045024 C0.00137394395,5.99834598 0.00232486975,5.98625586 0.00362593264,5.97419636 L0,6.04166667 C0,5.99317059 0.00552343194,5.94596458 0.0159755255,5.9006434 C0.0179565616,5.89223325 0.0201452094,5.88357012 0.0225219737,5.87494799 C0.0289583407,5.85150552 0.0367319875,5.82869844 0.0457417632,5.80652547 C0.0512919779,5.7927721 0.0575595352,5.77878045 0.0643670723,5.76498773 C0.0768652046,5.73985102 0.0908031264,5.71588827 0.106215633,5.69300092 C0.111679339,5.68475044 0.117453787,5.67660339 0.123446417,5.66856766 C0.139190753,5.64755861 0.156108018,5.62759898 0.174193572,5.60876995 C0.176859875,5.6059463 0.17993721,5.60280437 0.183054356,5.59968717 L2.54005436,3.2426455 C2.78412988,2.99856566 3.17985799,2.99856216 3.42393783,3.24263769 Z M13.9583333,10.8333333 C14.3035113,10.8333333 14.5833333,11.1131554 14.5833333,11.4583333 C14.5833333,11.8035113 14.3035113,12.0833333 13.9583333,12.0833333 L0.625,12.0833333 C0.279822031,12.0833333 0,11.8035113 0,11.4583333 C0,11.1131554 0.279822031,10.8333333 0.625,10.8333333 L13.9583333,10.8333333 Z" id="展开"></path>
            </g>
        </g>
    </g>
</svg>